<?xml version="1.0" encoding="UTF-8" standalone="no"?>
<!DOCTYPE svg PUBLIC "-//W3C//DTD SVG 1.1//EN"
 "http://www.w3.org/Graphics/SVG/1.1/DTD/svg11.dtd">
<!-- Generated by graphviz version 2.40.1 (20161225.0304)
 -->
<!-- Title: dependencies Pages: 1 -->
<svg width="504pt" height="211pt"
 viewBox="0.00 0.00 504.00 211.00" xmlns="http://www.w3.org/2000/svg" xmlns:xlink="http://www.w3.org/1999/xlink">
<g id="graph0" class="graph" transform="scale(1 1) rotate(0) translate(4 207)">
<title>dependencies</title>
<polygon fill="#ffffff" stroke="transparent" points="-4,4 -4,-207 500,-207 500,4 -4,4"/>
<text text-anchor="start" x="227.0091" y="-42.4" font-family="sans-serif" font-weight="bold" font-size="14.00" fill="#000000">Legend</text>
<polygon fill="#ffffb3" stroke="transparent" points="14,-10 14,-30 34,-30 34,-10 14,-10"/>
<text text-anchor="start" x="37.629" y="-15.4" font-family="sans-serif" font-size="14.00" fill="#000000"> &#160;Declarations</text>
<polygon fill="#8dd3c7" stroke="transparent" points="127,-10 127,-30 147,-30 147,-10 127,-10"/>
<text text-anchor="start" x="150.7251" y="-15.4" font-family="sans-serif" font-size="14.00" fill="#000000"> &#160;Module</text>
<polygon fill="#80b1d3" stroke="transparent" points="213,-10 213,-30 233,-30 233,-10 213,-10"/>
<text text-anchor="start" x="236.7812" y="-15.4" font-family="sans-serif" font-size="14.00" fill="#000000"> &#160;Bootstrap</text>
<polygon fill="#fdb462" stroke="transparent" points="310,-10 310,-30 330,-30 330,-10 310,-10"/>
<text text-anchor="start" x="333.6732" y="-15.4" font-family="sans-serif" font-size="14.00" fill="#000000"> &#160;Providers</text>
<polygon fill="#fb8072" stroke="transparent" points="406,-10 406,-30 426,-30 426,-10 406,-10"/>
<text text-anchor="start" x="429.7258" y="-15.4" font-family="sans-serif" font-size="14.00" fill="#000000"> &#160;Exports</text>
<g id="clust1" class="cluster">
<title>cluster_AppModule</title>
<polygon fill="none" stroke="#000000" stroke-dasharray="1,5" points="67.5,-70 67.5,-195 428.5,-195 428.5,-70 67.5,-70"/>
</g>
<g id="clust3" class="cluster">
<title>cluster_AppModule_imports</title>
<polygon fill="none" stroke="#000000" points="75.5,-78 75.5,-130 420.5,-130 420.5,-78 75.5,-78"/>
</g>
<!-- ActivitiesModule -->
<g id="node1" class="node">
<title>ActivitiesModule</title>
<polygon fill="#8dd3c7" stroke="#000000" points="412.4832,-122 409.4832,-126 388.4832,-126 385.4832,-122 298.5168,-122 298.5168,-86 412.4832,-86 412.4832,-122"/>
<text text-anchor="middle" x="355.5" y="-99.8" font-family="Times,serif" font-size="14.00" fill="#000000">ActivitiesModule</text>
</g>
<!-- AppModule -->
<g id="node4" class="node">
<title>AppModule</title>
<polygon fill="#8dd3c7" stroke="#000000" points="278.1571,-187 275.1571,-191 254.1571,-191 251.1571,-187 194.8429,-187 194.8429,-151 278.1571,-151 278.1571,-187"/>
<text text-anchor="middle" x="236.5" y="-164.8" font-family="Times,serif" font-size="14.00" fill="#000000">AppModule</text>
</g>
<!-- ActivitiesModule&#45;&gt;AppModule -->
<g id="edge1" class="edge">
<title>ActivitiesModule&#45;&gt;AppModule</title>
<path fill="none" stroke="#000000" d="M355.5,-122.1061C355.5,-141.3391 355.5,-169 355.5,-169 355.5,-169 288.4549,-169 288.4549,-169"/>
<polygon fill="#000000" stroke="#000000" points="288.455,-165.5001 278.4549,-169 288.4549,-172.5001 288.455,-165.5001"/>
</g>
<!-- AuthModule -->
<g id="node2" class="node">
<title>AuthModule</title>
<polygon fill="#8dd3c7" stroke="#000000" points="280.0482,-122 277.0482,-126 256.0482,-126 253.0482,-122 192.9518,-122 192.9518,-86 280.0482,-86 280.0482,-122"/>
<text text-anchor="middle" x="236.5" y="-99.8" font-family="Times,serif" font-size="14.00" fill="#000000">AuthModule</text>
</g>
<!-- AuthModule&#45;&gt;AppModule -->
<g id="edge2" class="edge">
<title>AuthModule&#45;&gt;AppModule</title>
<path fill="none" stroke="#000000" d="M236.5,-122.1061C236.5,-122.1061 236.5,-140.991 236.5,-140.991"/>
<polygon fill="#000000" stroke="#000000" points="233.0001,-140.9909 236.5,-150.991 240.0001,-140.991 233.0001,-140.9909"/>
</g>
<!-- UsersModule -->
<g id="node3" class="node">
<title>UsersModule</title>
<polygon fill="#8dd3c7" stroke="#000000" points="175.4218,-122 172.4218,-126 151.4218,-126 148.4218,-122 83.5782,-122 83.5782,-86 175.4218,-86 175.4218,-122"/>
<text text-anchor="middle" x="129.5" y="-99.8" font-family="Times,serif" font-size="14.00" fill="#000000">UsersModule</text>
</g>
<!-- UsersModule&#45;&gt;AppModule -->
<g id="edge3" class="edge">
<title>UsersModule&#45;&gt;AppModule</title>
<path fill="none" stroke="#000000" d="M129.5,-122.1061C129.5,-141.3391 129.5,-169 129.5,-169 129.5,-169 184.8246,-169 184.8246,-169"/>
<polygon fill="#000000" stroke="#000000" points="184.8247,-172.5001 194.8246,-169 184.8246,-165.5001 184.8247,-172.5001"/>
</g>
</g>
</svg>
